<svg width="520" height="520" xmlns="http://www.w3.org/2000/svg">

 <g>
  <title>Layer 1</title>
  <g>
   <path fill="#FFAF00" d="m459.5966,419.20071c0,0 -29.279,-59.282 -40.815,-103.166c0,0 32.54,-35.492 26.359,-82.194c-3.707,-28.01 -35.365,-67.682 -35.365,-67.682c8.769,0 15.991,-0.06 23.7,-0.06c18.47,0 24.537,9.295 32.154,17.703c6.678,8.767 15.51,11.94 18.999,8.459l19.54,-19.552c1.906,-1.906 -6.937,-9.898 -6.937,-9.898s10.78,-11.377 6.18,-15.975l-60.386,-60.389c3.694,-6.061 8.595,-18.966 0.525,-38.017c-0.692,-1.627 -2.203,-2.753 -3.962,-2.949c-1.74,-0.2 -3.478,0.58 -4.504,2.017c-7.039,9.853 -21.168,18.835 -37.527,29.235c-38.051,24.19 -85.406,54.295 -85.406,120.029l-147.512,0c0,0 -82.321,81.986 -83.321,229.146c4.42,0 28.328,7.077 28.328,7.077s36.497,-101.233 149.341,-101.233c100.305,0 149.342,101.234 149.342,101.234l51.267,-13.785z"/>
   <path fill="#1EB615" d="m504.5246,403.41971c-76.074,29.821 -158.893,46.198 -245.538,46.198s-169.464,-16.377 -245.539,-46.198l0,34.637c76.074,29.821 158.893,46.198 245.538,46.198s169.464,-16.377 245.538,-46.198l0,-34.637l0.001,0z"/>
   <path fill="#E29700" d="m164.6396,196.76371c0,0 -40.023,-47.487 -77.018,6.912c-23.746,34.919 -37.604,101.911 -74.174,112.359c62.575,15.458 83.588,-14.628 111.168,-62.23l40.024,-57.041z"/>
   <path d="m326.7696,254.05771c-0.016,0 -0.029,0 -0.045,0l-0.245,-0.001c-5.77,-0.024 -10.428,-4.722 -10.405,-10.492c0.024,-5.755 4.698,-10.405 10.447,-10.405c0.016,0 0.029,0 0.045,0l0.244,0.001c5.77,0.024 10.428,4.722 10.405,10.492c-0.022,5.754 -4.696,10.405 -10.446,10.405z"/>
   <path d="m292.7216,254.05771l-101.487,0c-5.771,0 -10.448,-4.678 -10.448,-10.448c0,-5.77 4.678,-10.448 10.448,-10.448l101.487,0c5.77,0 10.448,4.679 10.448,10.448c0,5.769 -4.678,10.448 -10.448,10.448z"/>
   <path d="m510.4126,394.78871c-2.851,-1.945 -6.485,-2.356 -9.7,-1.097c-11.773,4.616 -23.651,8.879 -35.62,12.797c-7.834,-16.641 -25.598,-55.851 -34.8,-87.997c9.088,-11.749 30.684,-44.64 25.207,-86.022c-2.463,-18.597 -15.349,-40.92 -25.357,-55.92c1.105,-0.002 2.214,-0.003 3.333,-0.003c11.86,0 15.681,4.353 22.011,11.564c0.7,0.798 1.402,1.597 2.114,2.389c6.207,7.982 14.384,13.037 21.95,13.551c4.861,0.331 9.287,-1.231 12.469,-4.405l19.538,-19.549c2.226,-2.226 3.406,-5.211 3.326,-8.407c-0.039,-1.531 -0.114,-4.525 -3.946,-9.546c5.393,-8.809 5.486,-17.078 -0.135,-22.697l-55.196,-55.199c3.268,-8.979 4.924,-22.527 -2.439,-39.907c-2.165,-5.089 -6.924,-8.631 -12.383,-9.24c-5.524,-0.638 -10.964,1.789 -14.198,6.322c-5.861,8.204 -19.193,16.679 -34.632,26.492c-36.18,23.002 -85.061,54.076 -89.864,118.397l-132.996,0c-6.954,-6.76 -23.513,-20.213 -44.279,-19.136c-17.197,0.887 -32.618,11.189 -45.833,30.622c-8.486,12.48 -15.707,28.625 -22.69,44.238c-12.829,28.684 -26.094,58.345 -45.714,63.951c-4.552,1.301 -7.662,5.501 -7.576,10.235c0.085,4.734 3.344,8.819 7.941,9.954c11.828,2.922 22.603,4.393 32.511,4.393c16.648,-0.001 30.833,-4.168 43.394,-12.573c-8.049,26.96 -14.177,58.534 -15.646,94.188c-18.193,-5.374 -36.184,-11.532 -53.942,-18.493c-3.217,-1.259 -6.848,-0.849 -9.7,1.097c-2.854,1.947 -4.561,5.178 -4.561,8.632l0,34.637c0,4.299 2.633,8.159 6.636,9.729c79.42,31.132 163.313,46.918 249.351,46.918s169.931,-15.785 249.351,-46.918c4.003,-1.569 6.636,-5.429 6.636,-9.729l0,-34.637c0,-3.454 -1.707,-6.685 -4.561,-8.631zm-434.24,-94.788c-9.721,6.789 -20.822,9.962 -34.493,9.682c13.971,-15.026 23.939,-37.315 33.688,-59.113c6.916,-15.463 13.448,-30.067 20.894,-41.019c9.314,-13.694 19.25,-20.927 29.535,-21.498c9.707,-0.542 18.545,4.76 24.257,9.304c-7.846,9.27 -21.052,26.5 -34.499,51.25c-12.726,21.96 -24.476,40.984 -39.382,51.394zm55.997,-38.174c15.361,-29.036 30.825,-47.681 37.021,-54.615l142.964,0c5.77,0 10.448,-4.679 10.448,-10.448c0,-59.994 42.8,-87.204 80.562,-111.211c13.221,-8.405 25.062,-15.932 33.58,-24.162c1.981,9.75 -0.587,16.255 -2.638,19.62c-2.509,4.117 -1.876,9.416 1.534,12.825l57.406,57.408c-0.901,1.407 -2.192,3.095 -3.397,4.38c-1.936,2.043 -2.965,4.779 -2.856,7.591c0.109,2.812 1.347,5.461 3.434,7.347c0.214,0.194 0.444,0.408 0.681,0.634l-11.38,11.386c-1.439,-0.808 -3.543,-2.429 -5.587,-5.112c-0.18,-0.237 -0.37,-0.465 -0.568,-0.684c-0.738,-0.814 -1.46,-1.638 -2.182,-2.461c-7.305,-8.321 -16.394,-18.677 -37.717,-18.677c-3.744,0 -7.373,0.015 -11.119,0.028c-3.968,0.016 -8.069,0.03 -12.58,0.03c-4.014,0 -7.673,2.3 -9.415,5.916c-1.741,3.617 -1.256,7.912 1.248,11.049c8.301,10.404 30.445,41.919 33.173,62.537c5.439,41.093 -23.428,73.46 -23.701,73.762c-2.402,2.619 -3.307,6.281 -2.404,9.717c8.773,33.368 27.144,74.578 36.246,94.037c-10.337,3.021 -20.737,5.786 -31.198,8.292c-5.633,-9.772 -17.216,-27.823 -34.99,-45.963c-34.455,-35.164 -75.864,-53.752 -119.748,-53.752c-62.087,0 -102.072,29.365 -124.683,54.001c-16.267,17.723 -25.997,35.4 -30.794,45.535c-3.873,-0.933 -7.738,-1.897 -11.595,-2.899c1.957,-69.564 22.767,-123.053 40.255,-156.111zm260.017,163.964c-43.551,8.892 -88.069,13.379 -133.2,13.379c-45.576,0 -90.527,-4.578 -134.487,-13.645c4.66,-9.053 12.767,-22.548 25.197,-36.091c28.768,-31.341 65.539,-47.233 109.29,-47.233c38.488,0 73.604,15.822 104.375,47.026c13.355,13.545 22.982,27.231 28.825,36.564zm101.89,5.098c-75.013,28.481 -154.065,42.917 -235.09,42.917s-160.078,-14.436 -235.09,-42.917l0,-12.333c75.178,27.554 154.182,41.51 235.09,41.51s159.912,-13.956 235.09,-41.51l0,12.333z"/>
   <g/>
   <g/>
   <g/>
   <g/>
   <g/>
   <g/>
   <g/>
   <g/>
   <g/>
   <g/>
   <g/>
   <g/>
   <g/>
   <g/>
   <g/>
  </g>
 </g>
</svg>